<?xml version="1.0" encoding="UTF-8"?>
<svg xmlns="http://www.w3.org/2000/svg" viewBox="0 0 800 600" width="800" height="600">
  <defs>
    <linearGradient id="bg" x1="0" y1="0" x2="1" y2="1"><stop offset="0%" stop-color="#D8B987"/><stop offset="100%" stop-color="#B5894B"/></linearGradient>
    <pattern id="dots" width="44" height="44" patternUnits="userSpaceOnUse"><circle cx="22" cy="22" r="1.2" fill="rgba(255,255,255,.09)"/></pattern>
    <filter id="glow"><feGaussianBlur stdDeviation="26"/></filter>
  </defs>
  <rect width="800" height="600" fill="url(#bg)"/>
  <rect width="800" height="600" fill="url(#dots)"/>
  <ellipse cx="160" cy="90" rx="220" ry="160" fill="rgba(255,255,255,.11)" filter="url(#glow)"/>
  <ellipse cx="650" cy="510" rx="180" ry="130" fill="rgba(0,0,0,.09)" filter="url(#glow)"/>
  <!-- Icon circle -->
  <circle cx="400" cy="218" r="76" fill="rgba(255,255,255,.15)" stroke="rgba(255,255,255,.38)" stroke-width="1.5"/>
  <circle cx="400" cy="218" r="54" fill="rgba(255,255,255,.09)"/>
  <!-- Food icon -->
  <g transform="translate(370,188) scale(2.5)" fill="none" stroke="rgba(255,255,255,.82)" stroke-width="1.7" stroke-linecap="round" stroke-linejoin="round"><path d="M4 13a8 8 0 0 0 16 0Z"/><path d="M4 13c1-4 4-6 8-6s7 2 8 6"/><circle cx="9" cy="10" r=".6" fill="rgba(255,255,255,.82)"/><circle cx="13" cy="9.5" r=".6" fill="rgba(255,255,255,.82)"/><circle cx="15.5" cy="11" r=".6" fill="rgba(255,255,255,.82)"/></g>
  <!-- Dish name -->
  <text x="400" y="342" text-anchor="middle" font-family="Georgia,serif" font-size="30" fill="rgba(255,255,255,.97)">Şehriye Pilavı</text>
  
  <!-- Divider -->
  <rect x="348" y="372" width="104" height="1" fill="rgba(255,255,255,.30)"/>
  <!-- Brand -->
  <text x="400" y="394" text-anchor="middle" font-family="Arial,Helvetica,sans-serif" font-size="10.5" fill="rgba(255,255,255,.58)" letter-spacing="4">HÜNERLİ ELLER</text>
  <!-- Replacement hint -->
  <text x="400" y="554" text-anchor="middle" font-family="Arial,Helvetica,sans-serif" font-size="11.5" fill="rgba(255,255,255,.34)">Fotoğraf için önerilen: 800 × 600 px</text>
  <text x="400" y="573" text-anchor="middle" font-family="Arial,Helvetica,sans-serif" font-size="10" fill="rgba(255,255,255,.24)">Bu dosyayı aynı isimle değiştirin: sehriye-pilavi.jpg</text>
</svg>